#!OML:ASF H:\LiuWeirdWalks\Patient Classification 1\Patient 1\Session 1\male.ASF
:FULLY-SPECIFIED
:DEGREES
292
root 1.69568 16.7884 -7.66101 10.8589 6.5867 -1.12928
lowerback 17.7087 1.17468 -4.51538
upperback -0.279115 0.910982 2.74986
thorax -10.4133 0.762658 5.36579
lowerneck -24.2115 0.0696245 5.88257
upperneck 15.1655 -1.19692 -3.398
head 8.62391 -0.591314 -2.28498
rclavicle 4.77083e-015 -1.19271e-014
rhumerus -33.109 -2.28338 -74.5964
rradius 57.6008
rwrist -11.9841
rhand -22.5096 4.67935
rfingers 7.12502
rthumb 3.91669 -25.2644
lclavicle 4.77083e-015 -1.19271e-014
lhumerus -27.7223 -1.27987 73.9855
lradius 51.4367
lwrist 7.79214
lhand -17.6788 -8.5564
lfingers 7.12502
lthumb 8.58035 21.2493
rfemur -28.3282 -11.2743 17.3976
rtibia 82.2507
rfoot -16.0435 -20.2465
rtoes -10.5428
lfemur -29.9188 -0.338632 -22.9394
ltibia 64.817
lfoot -16.5574 5.98131
ltoes -31.4296
293
root 1.68825 16.7579 -7.5682 11.0796 6.24123 -0.765426
lowerback 17.8241 1.29353 -5.13219
upperback -0.289897 0.916005 2.57713
thorax -10.5008 0.795398 5.52995
lowerneck -24.3237 0.124716 5.96009
upperneck 14.8975 -1.17935 -3.28994
head 8.55175 -0.570601 -2.25462
rclavicle 1.43125e-014 1.66979e-014
rhumerus -33.3807 -1.83339 -74.3401
rradius 59.0417
rwrist -11.9279
rhand -22.5867 4.82897
rfingers 7.12502
rthumb 3.84223 -25.1161
lclavicle 1.43125e-014 1.66979e-014
lhumerus -27.2741 -1.97719 73.7066
lradius 52.0621
lwrist 7.81827
lhand -17.5961 -8.67253
lfingers 7.12502
lthumb 8.66009 21.1298
rfemur -30.0764 -11.4955 16.762
rtibia 84.2625
rfoot -16.2244 -19.9873
rtoes -10.4705
lfemur -29.5834 -0.235824 -23.3818
ltibia 64.6384
lfoot -16.8883 6.49225
ltoes -31.5612
294
root 1.68232 16.7346 -7.46964 11.2611 5.82532 -0.449103
lowerback 17.9079 1.42051 -5.72785
upperback -0.302057 0.937214 2.41692
thorax -10.5745 0.835074 5.6908
lowerneck -24.4341 0.193985 6.04787
upperneck 14.67 -1.13974 -3.21003
head 8.4941 -0.541675 -2.23329
rclavicle -3.10104e-014 -8.74653e-015
rhumerus -33.7126 -1.2929 -74.0745
rradius 60.5453
rwrist -11.733
rhand -22.6905 4.99967
rfingers 7.12502
rthumb 3.742 -24.9472
lclavicle -3.10104e-014 -8.74653e-015
lhumerus -26.8857 -2.72295 73.3947
lradius 52.6961
lwrist 7.89511
lhand -17.5918 -8.76956
lfingers 7.12502
lthumb 8.66431 21.0326
rfemur -31.8976 -11.6985 16.1542
rtibia 86.3344
rfoot -16.3514 -19.7074
rtoes -10.2738
lfemur -29.0895 -0.0133351 -23.8035
ltibia 64.2804
lfoot -17.2175 7.05654
ltoes -31.5927
295
root 1.67781 16.7196 -7.3637 11.402 5.37308 -0.156474
lowerback 17.953 1.54561 -6.31167
upperback -0.314311 0.960575 2.26826
thorax -10.6274 0.875108 5.85642
lowerneck -24.531 0.278657 6.15824
upperneck 14.5436 -1.07835 -3.16609
head 8.46967 -0.503714 -2.22641
rclavicle 6.36111e-015 1.90833e-014
rhumerus -34.096 -0.677173 -73.7938
rradius 62.0834
rwrist -11.4273
rhand -22.8047 5.18031
rfingers 7.12502
rthumb 3.63171 -24.7685
lclavicle 6.36111e-015 1.90833e-014
lhumerus -26.5567 -3.51786 73.0618
lradius 53.3153
lwrist 8.03381
lhand -17.6738 -8.87877
lfingers 7.12502
lthumb 8.58518 20.9267
rfemur -33.7579 -11.9156 15.5522
rtibia 88.428
rfoot -16.4309 -19.3852
rtoes -9.99175
lfemur -28.4223 0.296412 -24.2162
ltibia 63.7254
lfoot -17.5383 7.63165
ltoes -31.5467
296
root 1.67395 16.7144 -7.24911 11.4913 4.94783 0.118168
lowerback 17.975 1.64113 -6.88023
upperback -0.331009 0.950575 2.13758
thorax -10.6675 0.899089 6.04197
lowerneck -24.6388 0.368847 6.24476
upperneck 14.5247 -1.00265 -3.11845
head 8.48481 -0.458361 -2.21408
rclavicle 1.91827e-014 -4.37326e-015
rhumerus -34.5255 0.0282616 -73.5139
rradius 63.6333
rwrist -11.0352
rhand -22.8928 5.36421
rfingers 7.12502
rthumb 3.54659 -24.586
lclavicle 1.91827e-014 -4.37326e-015
lhumerus -26.3235 -4.33923 72.6992
lradius 53.9232
lwrist 8.20088
lhand -17.8118 -8.95491
lfingers 7.12502
lthumb 8.45197 20.856
rfemur -35.6053 -12.1972 14.9613
rtibia 90.5059
rfoot -16.5 -19.0035
rtoes -9.66868
lfemur -27.5637 0.634165 -24.601
ltibia 62.9582
lfoot -17.8299 8.17484
ltoes -31.4606
